<svg width="25" height="26" viewBox="0 0 25 26" fill="none" xmlns="http://www.w3.org/2000/svg">
<g clip-path="url(#clip0_948_1053)">
<path d="M0 9.16667C0 6.13305 0 4.61624 0.590381 3.45755C1.1097 2.43834 1.93834 1.6097 2.95755 1.09038C4.11624 0.5 5.63305 0.5 8.66667 0.5H16.3333C19.3669 0.5 20.8838 0.5 22.0424 1.09038C23.0617 1.6097 23.8903 2.43834 24.4096 3.45755C25 4.61624 25 6.13305 25 9.16667V16.8333C25 19.8669 25 21.3838 24.4096 22.5424C23.8903 23.5617 23.0617 24.3903 22.0424 24.9096C20.8838 25.5 19.3669 25.5 16.3333 25.5H8.66667C5.63305 25.5 4.11624 25.5 2.95755 24.9096C1.93834 24.3903 1.1097 23.5617 0.590381 22.5424C0 21.3838 0 19.8669 0 16.8333V9.16667Z" fill="url(#paint0_linear_948_1053)"/>
<path d="M19.2919 11.0002C18.9887 10.612 18.6394 10.2622 18.2518 9.9585L14.9704 7.09392C14.0968 6.32829 13.66 5.94809 13.1711 5.80225C12.7397 5.67724 12.2817 5.67724 11.8502 5.80225C11.3614 5.94809 10.9246 6.32309 10.0509 7.09392L6.77995 9.9585C6.39234 10.2622 6.04308 10.612 5.73988 11.0002C5.55725 11.266 5.42341 11.5623 5.34466 11.8752C5.24138 12.3663 5.19946 12.8684 5.21985 13.37V15.7241C5.21985 16.9585 5.21985 17.5731 5.45387 18.047C5.66218 18.4586 5.99288 18.7952 6.40032 19.0106C6.86315 19.2502 7.47159 19.2502 8.68326 19.2502H16.3173C17.529 19.2502 18.1374 19.2502 18.6002 19.0106C19.0077 18.7952 19.3384 18.4586 19.5467 18.047C19.7807 17.5731 19.7807 16.9585 19.7807 15.7241V13.37C19.8114 12.8697 19.7799 12.3676 19.6871 11.8752C19.6084 11.5623 19.4745 11.266 19.2919 11.0002Z" fill="url(#paint1_linear_948_1053)"/>
<path d="M5.70869 11.0001C5.52605 11.2659 5.39222 11.5622 5.31347 11.8751C5.22064 12.3676 5.1892 12.8697 5.21986 13.3699V15.7241C5.21986 16.9584 5.21986 17.573 5.45387 18.047C5.66219 18.4585 5.99288 18.7952 6.40033 19.0105C6.86316 19.2501 7.47159 19.2501 8.68327 19.2501H16.3173C17.529 19.2501 18.1374 19.2501 18.6003 19.0105C18.9968 18.8019 19.3198 18.4765 19.5259 18.0782C18.7609 15.2274 16.9032 12.7941 14.3568 11.3074C12.1402 9.98645 9.54761 9.4422 6.98796 9.76053L6.75915 9.95844C6.36789 10.2615 6.01511 10.6113 5.70869 11.0001Z" fill="url(#paint2_linear_948_1053)"/>
<path d="M10.9869 14.5157C10.0579 14.1578 9.06384 14.0007 8.06994 14.0545C7.07604 14.1084 6.10474 14.372 5.21973 14.8282V15.7241C5.21973 16.9585 5.21973 17.573 5.45374 18.047C5.66206 18.4585 5.99275 18.7952 6.4002 19.0105C6.86302 19.2501 7.47146 19.2501 8.68313 19.2501H15.2095C14.9593 18.2415 14.4807 17.3041 13.8106 16.5105C13.0502 15.6202 12.0795 14.9345 10.9869 14.5157Z" fill="url(#paint3_linear_948_1053)"/>
</g>
<defs>
<linearGradient id="paint0_linear_948_1053" x1="-1.32852e-07" y1="25.5" x2="25" y2="0.499997" gradientUnits="userSpaceOnUse">
<stop offset="0.159916" stop-color="#C926FF"/>
<stop offset="0.849577" stop-color="#4A26FF"/>
</linearGradient>
<linearGradient id="paint1_linear_948_1053" x1="8.23603" y1="10.3387" x2="16.2311" y2="18.493" gradientUnits="userSpaceOnUse">
<stop stop-color="white"/>
<stop offset="0.5" stop-color="#FFBEF1"/>
<stop offset="1" stop-color="#E374FF"/>
</linearGradient>
<linearGradient id="paint2_linear_948_1053" x1="8.31924" y1="12.8387" x2="16.6424" y2="21.3206" gradientUnits="userSpaceOnUse">
<stop stop-color="white"/>
<stop offset="0.51" stop-color="#FFCBF7"/>
<stop offset="1" stop-color="#EE86FF"/>
</linearGradient>
<linearGradient id="paint3_linear_948_1053" x1="9.7856" y1="16.646" x2="16.9984" y2="16.646" gradientUnits="userSpaceOnUse">
<stop stop-color="white"/>
<stop offset="1" stop-color="#FFD1F8"/>
</linearGradient>
<clipPath id="clip0_948_1053">
<rect width="25" height="25" fill="white" transform="translate(0 0.5)"/>
</clipPath>
</defs>
</svg>
